<?xml version="1.0" encoding="UTF-8"?>
<svg width="880px" height="446px" viewBox="0 0 880 446" version="1.1" xmlns="http://www.w3.org/2000/svg" xmlns:xlink="http://www.w3.org/1999/xlink">
    <!-- Generator: Sketch 41 (35326) - http://www.bohemiancoding.com/sketch -->
    <title>Main Element</title>
    <desc>Created with Sketch.</desc>
    <defs>
        <polygon id="path-1" points="0 445 355.386 445 355.386 0.496 0 0.496"></polygon>
    </defs>
    <g id="Page-1" stroke="none" stroke-width="1" fill="none" fill-rule="evenodd" opacity="0.59618433">
        <g id="Home-Page" transform="translate(-200.000000, -279.000000)">
            <g id="Main-Element" transform="translate(200.000000, 279.000000)">
                <g id="People" transform="translate(262.000000, 0.000000)">
                    <polygon id="Stroke-1" stroke="#51CCA3" stroke-width="2" points="138.961 186.2409 100.283 198.5879 177.691 305.7029 243.548 194.9949 216.221 186.3289 192.157 203.3169 163.308 203.3169 138.957 186.2399 138.961 186.2399"></polygon>
                    <polygon id="Stroke-2" stroke="#51CCA3" stroke-width="2" points="169.0567 201.76 172.3627 209.916 165.0137 302.87 177.6897 312.574 190.3707 302.87 183.0217 209.916 186.3277 201.76 177.6897 201.417"></polygon>
                    <g id="Group-33" transform="translate(0.000000, 0.504000)">
                        <path d="M139.6241,185.528 L71.2111,207.366 C71.2111,207.366 62.3551,211.97 59.6841,225.973 C57.1201,239.387 55.7991,253.092 53.7771,271.588 C86.4091,301.531 129.9141,319.813 177.6941,319.813 C225.4741,319.813 268.9841,301.531 301.6161,271.583 C299.5891,253.088 298.2681,239.382 295.7041,225.968 C293.0291,211.961 284.1721,207.361 284.1721,207.361 L216.2251,185.825 L177.6951,298.828 L139.6291,185.528 L139.6241,185.528 Z" id="Stroke-3" stroke="#51CCA3" stroke-width="2" fill="#F9F9FA"></path>
                        <path d="M139.6241,185.528 L124.8661,190.239 L122.0331,227.684 C122.0331,227.684 122.8171,230.758 125.1581,230.486 L138.4741,235.493 C138.4741,235.493 139.3461,236.369 138.5671,237.468 L127.1701,245.277 L166.5491,319.499 C170.2401,319.712 173.9541,319.82 177.6911,319.82 C181.4331,319.82 185.1471,319.712 188.8321,319.499 L228.2161,245.277 L216.8191,237.468 C216.0351,236.369 216.9121,235.493 216.9121,235.493 L230.2281,230.486 C232.5691,230.759 233.3531,227.684 233.3531,227.684 L230.5251,190.359 L216.2211,185.824 L177.6911,298.827 L139.6241,185.528 Z" id="Stroke-5" stroke="#51CCA3" stroke-width="2" fill="#F9F9FA"></path>
                        <path d="M123.3448,58.129 C123.3448,61.787 122.0098,65.362 122.1118,68.872 C109.6068,66.549 115.6438,103.697 122.7238,108.802 C123.2848,109.21 124.6668,108.301 125.8348,107.559 C128.2878,121.218 149.2358,157.727 162.5518,173.093 C166.2518,177.359 188.8688,177.289 192.5278,173.255 C206.1688,158.242 227.0888,121.302 229.5558,107.559 C230.7238,108.301 232.1058,109.21 232.6668,108.802 C239.7418,103.697 245.7788,66.549 233.2738,68.872 C233.3708,65.362 232.0408,61.787 232.0408,58.129 C231.3498,29.285 205.2138,14.888 177.6908,14.763 C150.1728,14.888 124.0358,29.285 123.3408,58.129 L123.3448,58.129 Z" id="Stroke-7" stroke="#51CCA3" stroke-width="2"></path>
                        <path d="M233.275,68.8649 C226.305,68.7849 226.875,86.2049 226.875,86.2049 L223.745,86.3549 C223.745,86.3549 225.185,79.7149 222.775,75.4949 C220.355,71.2749 223.485,59.4449 223.485,59.4449 C210.065,70.7549 180.305,74.8749 146.575,50.8349 C134.095,53.5449 146.665,65.1349 134.185,72.9649 L132.035,87.6249 L129.025,88.2949 C129.145,88.2049 129.635,87.3649 128.705,79.7449 C127.655,71.1949 119.315,69.0849 119.315,69.0849 C119.315,69.0849 118.495,55.2049 120.205,40.1249 C121.915,25.0549 136.165,20.6949 140.105,21.1549 C175.965,-29.0951 259.735,25.1749 233.275,68.8649 Z" id="Stroke-9" stroke="#51CCA3" stroke-width="2" fill="#F9F9FA"></path>
                        <path d="M150.256,171.8273 C151.234,171.8923 138.831,185.8803 138.831,185.8803 L149.389,222.0273 L177.691,200.9123 C162.125,193.2703 152.834,183.3773 150.256,171.8273 Z" id="Stroke-11" stroke="#51CCA3" stroke-width="2" fill="#F9F9FA"></path>
                        <path d="M205.1344,171.8268 C204.1514,171.8918 216.5484,185.8798 216.5484,185.8798 L205.9904,222.0278 L177.6894,200.9118 C193.2594,193.2708 202.5504,183.3758 205.1274,171.8268 L205.1344,171.8268 L205.1344,171.8268 Z" id="Stroke-13" stroke="#51CCA3" stroke-width="2" fill="#F9F9FA"></path>
                        <path d="M162.2921,139.3341 L170.0351,134.0671 C172.4141,136.2831 183.4811,136.2511 185.8461,134.0441 L192.9861,139.3341 C196.4501,141.8981 200.0201,142.7791 200.9101,146.7571 L203.7431,159.4751 C204.6331,163.4621 196.7421,176.8671 192.3971,176.8671 L161.7031,176.8671 C158.0521,176.8671 153.2581,167.8331 152.2311,162.5541 C152.0361,161.5521 151.9771,160.6851 152.0871,160.0411 L154.3681,146.7571 C155.0591,142.7231 158.7221,141.7641 162.2921,139.3341 Z" id="Stroke-15" stroke="#51CCA3" stroke-width="2" fill="#F9F9FA"></path>
                        <path d="M77.3639,164.673 L123.3499,154.213 L123.3499,162.118 L79.1079,172.578 C78.0229,172.671 70.8129,175.606 68.5499,177.868 C66.2869,180.131 64.8779,183.251 64.8779,186.682 C64.8779,209.202 64.9149,231.703 64.9149,254.186 L60.9229,254.186 L56.9729,254.186 L56.9729,250.231 L56.9729,186.682 C56.9729,181.072 59.2629,175.967 62.9589,172.276 C66.6539,168.581 74.3699,165.029 77.3649,164.667 L77.3649,164.673 L77.3639,164.673 Z" id="Stroke-17" stroke="#51CCA3" stroke-width="2" fill="#F9F9FA"></path>
                        <path d="M96.7818,155.5568 L132.2748,148.0738 C135.2328,147.4528 138.1628,149.3578 138.7888,152.3158 L139.8738,157.4808 C140.4998,160.4388 138.5898,163.3688 135.6318,163.9908 L100.1388,171.4738 C97.1808,172.0948 94.2508,170.1848 93.6288,167.2318 L92.5388,162.0668 C91.9178,159.1088 93.8238,156.1788 96.7818,155.5568 Z" id="Stroke-19" stroke="#51CCA3" stroke-width="2" fill="#F9F9FA"></path>
                        <path d="M60.9127,237.6115 C71.4377,237.6115 79.9687,246.1415 79.9687,256.6675 L79.9637,256.7925 L41.8607,256.7925 L41.8557,256.6675 C41.8567,246.1465 50.3877,237.6115 60.9127,237.6115 Z" id="Stroke-21" stroke="#51CCA3" stroke-width="2" fill="#F9F9FA"></path>
                        <mask id="mask-2" fill="white">
                            <use xlink:href="#path-1"></use>
                        </mask>
                        <g id="Clip-24"></g>
                        <polygon id="Stroke-23" stroke="#51CCA3" stroke-width="2" fill="#F9F9FA" mask="url(#mask-2)" points="1.723 279.854 353.663 279.854 353.663 254.071 1.723 254.071"></polygon>
                        <polygon id="Stroke-25" stroke="#51CCA3" stroke-width="2" fill="#F9F9FA" mask="url(#mask-2)" points="47.49 444.501 307.899 444.501 307.899 279.855 47.49 279.855"></polygon>
                        <path d="M353.6627,279.8546 L353.6627,279.8546 L307.8947,308.8626 L307.8947,279.8546 L353.6627,279.8546 Z M1.7227,279.8546 L47.4907,308.8626 L47.4907,279.8546 L1.7227,279.8546 Z" id="Stroke-26" stroke="#51CCA3" stroke-width="2" fill="#F9F9FA" mask="url(#mask-2)"></path>
                        <polygon id="Stroke-27" stroke="#51CCA3" stroke-width="2" fill="#F9F9FA" mask="url(#mask-2)" points="47.49 290.811 307.899 290.811 307.899 279.855 47.49 279.855"></polygon>
                        <polygon id="Stroke-28" stroke="#51CCA3" stroke-width="2" mask="url(#mask-2)" points="47.49 392.693 307.899 392.693 307.899 352.191 47.49 352.191"></polygon>
                        <path d="M177.2408,325.799 C203.0018,325.799 223.8858,346.682 223.8858,372.443 C223.8858,398.204 203.0018,419.087 177.2408,419.087 C151.4798,419.087 130.5968,398.204 130.5968,372.443 C130.5968,346.682 151.4798,325.799 177.2408,325.799 Z" id="Stroke-29" stroke="#51CCA3" stroke-width="2" fill="#F9F9FA" mask="url(#mask-2)"></path>
                        <path d="M179.6344,143.9415 L194.6524,151.8325 C194.6524,151.8325 193.6454,162.0575 192.0094,163.2945 C190.3734,164.5325 189.5194,165.3985 182.4114,162.7655 C182.4114,162.7655 182.8304,155.4995 180.1904,156.0375 L175.1874,156.0375 C175.1874,156.0375 172.9594,155.8505 172.9614,162.7655 C172.9614,162.7655 165.1934,165.8955 163.3684,163.2945 C163.3684,163.2945 161.4984,161.0365 160.7254,151.8325 L175.7434,143.9415 L177.6874,144.4885 L179.6344,143.9415 Z" id="Stroke-30" stroke="#51CCA3" stroke-width="2" mask="url(#mask-2)"></path>
                        <path d="M152.0318,161.4996 C152.0318,161.4996 153.6988,174.4376 151.6178,176.2866" id="Stroke-31" stroke="#51CCA3" stroke-width="2" mask="url(#mask-2)"></path>
                        <path d="M203.7037,161.1066 C203.7037,161.1066 201.9157,174.5316 203.9967,176.3796" id="Stroke-32" stroke="#51CCA3" stroke-width="2" mask="url(#mask-2)"></path>
                    </g>
                </g>
                <g id="Icones" transform="translate(0.000000, 47.000000)">
                    <g id="001-chat" transform="translate(668.000000, 28.000000)" fill="#AAAAAA" fill-opacity="0.5">
                        <g id="Layer_1">
                            <path d="M51.4322813,0.0521577778 L4.56771875,0.0521577778 C2.04914062,0.0521577778 0,2.09219111 0,4.59968444 L0,31.8796178 C0,34.38722 2.04914062,36.4272533 4.56782812,36.4272533 L7.23821875,36.4272533 L7.23821875,47.6514111 C7.23821875,48.17582 7.555625,48.6485067 8.042125,48.8491889 C8.20323437,48.9156111 8.37232812,48.9478422 8.54010937,48.9478422 C8.8790625,48.9478422 9.21221875,48.8160867 9.46126562,48.5681467 L21.65625,36.4271444 L51.4320625,36.4271444 C53.95075,36.4271444 55.9997812,34.3871111 55.9997812,31.8795089 L55.9997812,4.59968444 C56,2.09219111 53.9508594,0.0521577778 51.4322813,0.0521577778 Z M51.4322813,33.8341733 L21.1161563,33.8341733 C20.7792813,33.8341733 20.47325,33.9626622 20.2421406,34.17162 C20.2400625,34.1734711 20.2376563,34.1757578 20.2355781,34.1776089 C20.2197188,34.1920911 20.2035313,34.2062467 20.1884375,34.2216 L9.84265625,44.5212911 L9.84265625,35.1306044 C9.84265625,35.0855244 9.84035938,35.0455622 9.83576563,35.0102822 C9.77473438,34.3507422 9.218125,33.8341733 8.53967188,33.8341733 L4.56771875,33.8341733 C3.485125,33.8341733 2.6044375,32.9572911 2.6044375,31.8795089 L2.6044375,4.59968444 C2.6044375,3.52190222 3.485125,2.64512889 4.56771875,2.64512889 L51.4321719,2.64512889 C52.514875,2.64512889 53.3954531,3.52190222 53.3954531,4.59968444 L53.3954531,31.8796178 L53.3954531,31.8796178 C53.3954531,32.9572911 52.5147656,33.8341733 51.4322813,33.8341733 Z" id="Shape"></path>
                            <path d="M19.0298281,9.52091778 L11.4393125,9.52091778 C10.7200625,9.52091778 10.1370937,10.1015133 10.1370937,10.8173489 C10.1370937,11.5332933 10.7200625,12.11378 11.4393125,12.11378 L19.0298281,12.11378 C19.7490781,12.11378 20.3320469,11.5331844 20.3320469,10.8173489 C20.3320469,10.1014044 19.7489687,9.52091778 19.0298281,9.52091778 Z" id="Shape"></path>
                            <path d="M32.5650937,16.9431111 L11.4392031,16.9431111 C10.7199531,16.9431111 10.1369844,17.5237067 10.1369844,18.2395422 C10.1369844,18.9554867 10.7199531,19.5359733 11.4392031,19.5359733 L32.5650937,19.5359733 C33.2842344,19.5359733 33.8673125,18.9555956 33.8673125,18.2395422 C33.8673125,17.5237067 33.2842344,16.9431111 32.5650937,16.9431111 Z" id="Shape"></path>
                            <path d="M44.5609063,9.52091778 L26.6335781,9.52091778 C25.9143281,9.52091778 25.3313594,10.1015133 25.3313594,10.8173489 C25.3313594,11.5332933 25.9143281,12.11378 26.6335781,12.11378 L44.5609063,12.11378 C45.2800469,12.11378 45.863125,11.5331844 45.863125,10.8173489 C45.863125,10.1012956 45.2800469,9.52091778 44.5609063,9.52091778 Z" id="Shape"></path>
                            <path d="M44.5609063,16.9431111 L39.846625,16.9431111 C39.1274844,16.9431111 38.5444063,17.5237067 38.5444063,18.2395422 C38.5444063,18.9555956 39.1275938,19.5359733 39.846625,19.5359733 L44.5609063,19.5359733 C45.2800469,19.5359733 45.863125,18.9555956 45.863125,18.2395422 C45.863125,17.5234889 45.2800469,16.9431111 44.5609063,16.9431111 Z" id="Shape"></path>
                            <path d="M23.2320156,24.3655222 L11.4392031,24.3655222 C10.7199531,24.3655222 10.1369844,24.9459 10.1369844,25.6619533 C10.1369844,26.3778978 10.7199531,26.9583844 11.4392031,26.9583844 L23.2320156,26.9583844 C23.9512656,26.9583844 24.5342344,26.3777889 24.5342344,25.6619533 C24.5342344,24.9459 23.9512656,24.3655222 23.2320156,24.3655222 Z" id="Shape"></path>
                            <path d="M44.5609063,24.3655222 L30.1519531,24.3655222 C29.4328125,24.3655222 28.8497344,24.9459 28.8497344,25.6619533 C28.8497344,26.3778978 29.4329219,26.9583844 30.1519531,26.9583844 L44.5609063,26.9583844 C45.2800469,26.9583844 45.863125,26.3777889 45.863125,25.6619533 C45.863125,24.9459 45.2800469,24.3655222 44.5609063,24.3655222 Z" id="Shape"></path>
                        </g>
                    </g>
                    <g id="001-chat" transform="translate(184.000000, 52.500000) scale(-1, 1) translate(-184.000000, -52.500000) translate(156.000000, 28.000000)" fill="#AAAAAA" fill-opacity="0.5">
                        <g id="Layer_1">
                            <path d="M51.4322813,0.0521577778 L4.56771875,0.0521577778 C2.04914062,0.0521577778 0,2.09219111 0,4.59968444 L0,31.8796178 C0,34.38722 2.04914062,36.4272533 4.56782812,36.4272533 L7.23821875,36.4272533 L7.23821875,47.6514111 C7.23821875,48.17582 7.555625,48.6485067 8.042125,48.8491889 C8.20323437,48.9156111 8.37232812,48.9478422 8.54010937,48.9478422 C8.8790625,48.9478422 9.21221875,48.8160867 9.46126562,48.5681467 L21.65625,36.4271444 L51.4320625,36.4271444 C53.95075,36.4271444 55.9997812,34.3871111 55.9997812,31.8795089 L55.9997812,4.59968444 C56,2.09219111 53.9508594,0.0521577778 51.4322813,0.0521577778 Z M51.4322813,33.8341733 L21.1161563,33.8341733 C20.7792813,33.8341733 20.47325,33.9626622 20.2421406,34.17162 C20.2400625,34.1734711 20.2376563,34.1757578 20.2355781,34.1776089 C20.2197188,34.1920911 20.2035313,34.2062467 20.1884375,34.2216 L9.84265625,44.5212911 L9.84265625,35.1306044 C9.84265625,35.0855244 9.84035938,35.0455622 9.83576563,35.0102822 C9.77473438,34.3507422 9.218125,33.8341733 8.53967188,33.8341733 L4.56771875,33.8341733 C3.485125,33.8341733 2.6044375,32.9572911 2.6044375,31.8795089 L2.6044375,4.59968444 C2.6044375,3.52190222 3.485125,2.64512889 4.56771875,2.64512889 L51.4321719,2.64512889 C52.514875,2.64512889 53.3954531,3.52190222 53.3954531,4.59968444 L53.3954531,31.8796178 L53.3954531,31.8796178 C53.3954531,32.9572911 52.5147656,33.8341733 51.4322813,33.8341733 Z" id="Shape"></path>
                            <path d="M19.0298281,9.52091778 L11.4393125,9.52091778 C10.7200625,9.52091778 10.1370937,10.1015133 10.1370937,10.8173489 C10.1370937,11.5332933 10.7200625,12.11378 11.4393125,12.11378 L19.0298281,12.11378 C19.7490781,12.11378 20.3320469,11.5331844 20.3320469,10.8173489 C20.3320469,10.1014044 19.7489687,9.52091778 19.0298281,9.52091778 Z" id="Shape"></path>
                            <path d="M32.5650937,16.9431111 L11.4392031,16.9431111 C10.7199531,16.9431111 10.1369844,17.5237067 10.1369844,18.2395422 C10.1369844,18.9554867 10.7199531,19.5359733 11.4392031,19.5359733 L32.5650937,19.5359733 C33.2842344,19.5359733 33.8673125,18.9555956 33.8673125,18.2395422 C33.8673125,17.5237067 33.2842344,16.9431111 32.5650937,16.9431111 Z" id="Shape"></path>
                            <path d="M44.5609063,9.52091778 L26.6335781,9.52091778 C25.9143281,9.52091778 25.3313594,10.1015133 25.3313594,10.8173489 C25.3313594,11.5332933 25.9143281,12.11378 26.6335781,12.11378 L44.5609063,12.11378 C45.2800469,12.11378 45.863125,11.5331844 45.863125,10.8173489 C45.863125,10.1012956 45.2800469,9.52091778 44.5609063,9.52091778 Z" id="Shape"></path>
                            <path d="M44.5609063,16.9431111 L39.846625,16.9431111 C39.1274844,16.9431111 38.5444063,17.5237067 38.5444063,18.2395422 C38.5444063,18.9555956 39.1275938,19.5359733 39.846625,19.5359733 L44.5609063,19.5359733 C45.2800469,19.5359733 45.863125,18.9555956 45.863125,18.2395422 C45.863125,17.5234889 45.2800469,16.9431111 44.5609063,16.9431111 Z" id="Shape"></path>
                            <path d="M23.2320156,24.3655222 L11.4392031,24.3655222 C10.7199531,24.3655222 10.1369844,24.9459 10.1369844,25.6619533 C10.1369844,26.3778978 10.7199531,26.9583844 11.4392031,26.9583844 L23.2320156,26.9583844 C23.9512656,26.9583844 24.5342344,26.3777889 24.5342344,25.6619533 C24.5342344,24.9459 23.9512656,24.3655222 23.2320156,24.3655222 Z" id="Shape"></path>
                            <path d="M44.5609063,24.3655222 L30.1519531,24.3655222 C29.4328125,24.3655222 28.8497344,24.9459 28.8497344,25.6619533 C28.8497344,26.3778978 29.4329219,26.9583844 30.1519531,26.9583844 L44.5609063,26.9583844 C45.2800469,26.9583844 45.863125,26.3777889 45.863125,25.6619533 C45.863125,24.9459 45.2800469,24.3655222 44.5609063,24.3655222 Z" id="Shape"></path>
                        </g>
                    </g>
                    <g id="001-chat" transform="translate(824.000000, 280.000000)" fill="#AAAAAA" fill-opacity="0.5">
                        <g id="Layer_1">
                            <path d="M51.4322813,0.0521577778 L4.56771875,0.0521577778 C2.04914062,0.0521577778 0,2.09219111 0,4.59968444 L0,31.8796178 C0,34.38722 2.04914062,36.4272533 4.56782812,36.4272533 L7.23821875,36.4272533 L7.23821875,47.6514111 C7.23821875,48.17582 7.555625,48.6485067 8.042125,48.8491889 C8.20323437,48.9156111 8.37232812,48.9478422 8.54010937,48.9478422 C8.8790625,48.9478422 9.21221875,48.8160867 9.46126562,48.5681467 L21.65625,36.4271444 L51.4320625,36.4271444 C53.95075,36.4271444 55.9997812,34.3871111 55.9997812,31.8795089 L55.9997812,4.59968444 C56,2.09219111 53.9508594,0.0521577778 51.4322813,0.0521577778 Z M51.4322813,33.8341733 L21.1161563,33.8341733 C20.7792813,33.8341733 20.47325,33.9626622 20.2421406,34.17162 C20.2400625,34.1734711 20.2376563,34.1757578 20.2355781,34.1776089 C20.2197188,34.1920911 20.2035313,34.2062467 20.1884375,34.2216 L9.84265625,44.5212911 L9.84265625,35.1306044 C9.84265625,35.0855244 9.84035938,35.0455622 9.83576563,35.0102822 C9.77473438,34.3507422 9.218125,33.8341733 8.53967188,33.8341733 L4.56771875,33.8341733 C3.485125,33.8341733 2.6044375,32.9572911 2.6044375,31.8795089 L2.6044375,4.59968444 C2.6044375,3.52190222 3.485125,2.64512889 4.56771875,2.64512889 L51.4321719,2.64512889 C52.514875,2.64512889 53.3954531,3.52190222 53.3954531,4.59968444 L53.3954531,31.8796178 L53.3954531,31.8796178 C53.3954531,32.9572911 52.5147656,33.8341733 51.4322813,33.8341733 Z" id="Shape"></path>
                            <path d="M19.0298281,9.52091778 L11.4393125,9.52091778 C10.7200625,9.52091778 10.1370938,10.1015133 10.1370938,10.8173489 C10.1370938,11.5332933 10.7200625,12.11378 11.4393125,12.11378 L19.0298281,12.11378 C19.7490781,12.11378 20.3320469,11.5331844 20.3320469,10.8173489 C20.3320469,10.1014044 19.7489688,9.52091778 19.0298281,9.52091778 Z" id="Shape"></path>
                            <path d="M32.5650937,16.9431111 L11.4392031,16.9431111 C10.7199531,16.9431111 10.1369844,17.5237067 10.1369844,18.2395422 C10.1369844,18.9554867 10.7199531,19.5359733 11.4392031,19.5359733 L32.5650937,19.5359733 C33.2842344,19.5359733 33.8673125,18.9555956 33.8673125,18.2395422 C33.8673125,17.5237067 33.2842344,16.9431111 32.5650937,16.9431111 Z" id="Shape"></path>
                            <path d="M44.5609062,9.52091778 L26.6335781,9.52091778 C25.9143281,9.52091778 25.3313594,10.1015133 25.3313594,10.8173489 C25.3313594,11.5332933 25.9143281,12.11378 26.6335781,12.11378 L44.5609062,12.11378 C45.2800469,12.11378 45.863125,11.5331844 45.863125,10.8173489 C45.863125,10.1012956 45.2800469,9.52091778 44.5609062,9.52091778 Z" id="Shape"></path>
                            <path d="M44.5609063,16.9431111 L39.846625,16.9431111 C39.1274844,16.9431111 38.5444063,17.5237067 38.5444063,18.2395422 C38.5444063,18.9555956 39.1275938,19.5359733 39.846625,19.5359733 L44.5609063,19.5359733 C45.2800469,19.5359733 45.863125,18.9555956 45.863125,18.2395422 C45.863125,17.5234889 45.2800469,16.9431111 44.5609063,16.9431111 Z" id="Shape"></path>
                            <path d="M23.2320156,24.3655222 L11.4392031,24.3655222 C10.7199531,24.3655222 10.1369844,24.9459 10.1369844,25.6619533 C10.1369844,26.3778978 10.7199531,26.9583844 11.4392031,26.9583844 L23.2320156,26.9583844 C23.9512656,26.9583844 24.5342344,26.3777889 24.5342344,25.6619533 C24.5342344,24.9459 23.9512656,24.3655222 23.2320156,24.3655222 Z" id="Shape"></path>
                            <path d="M44.5609063,24.3655222 L30.1519531,24.3655222 C29.4328125,24.3655222 28.8497344,24.9459 28.8497344,25.6619533 C28.8497344,26.3778978 29.4329219,26.9583844 30.1519531,26.9583844 L44.5609063,26.9583844 C45.2800469,26.9583844 45.863125,26.3777889 45.863125,25.6619533 C45.863125,24.9459 45.2800469,24.3655222 44.5609063,24.3655222 Z" id="Shape"></path>
                        </g>
                    </g>
                    <g id="001-chat" transform="translate(28.000000, 304.500000) scale(-1, 1) translate(-28.000000, -304.500000) translate(0.000000, 280.000000)" fill="#AAAAAA" fill-opacity="0.5">
                        <g id="Layer_1">
                            <path d="M51.4322813,0.0521577778 L4.56771875,0.0521577778 C2.04914062,0.0521577778 0,2.09219111 0,4.59968444 L0,31.8796178 C0,34.38722 2.04914062,36.4272533 4.56782812,36.4272533 L7.23821875,36.4272533 L7.23821875,47.6514111 C7.23821875,48.17582 7.555625,48.6485067 8.042125,48.8491889 C8.20323437,48.9156111 8.37232812,48.9478422 8.54010937,48.9478422 C8.8790625,48.9478422 9.21221875,48.8160867 9.46126562,48.5681467 L21.65625,36.4271444 L51.4320625,36.4271444 C53.95075,36.4271444 55.9997812,34.3871111 55.9997812,31.8795089 L55.9997812,4.59968444 C56,2.09219111 53.9508594,0.0521577778 51.4322813,0.0521577778 Z M51.4322813,33.8341733 L21.1161563,33.8341733 C20.7792813,33.8341733 20.47325,33.9626622 20.2421406,34.17162 C20.2400625,34.1734711 20.2376563,34.1757578 20.2355781,34.1776089 C20.2197188,34.1920911 20.2035313,34.2062467 20.1884375,34.2216 L9.84265625,44.5212911 L9.84265625,35.1306044 C9.84265625,35.0855244 9.84035938,35.0455622 9.83576563,35.0102822 C9.77473438,34.3507422 9.218125,33.8341733 8.53967188,33.8341733 L4.56771875,33.8341733 C3.485125,33.8341733 2.6044375,32.9572911 2.6044375,31.8795089 L2.6044375,4.59968444 C2.6044375,3.52190222 3.485125,2.64512889 4.56771875,2.64512889 L51.4321719,2.64512889 C52.514875,2.64512889 53.3954531,3.52190222 53.3954531,4.59968444 L53.3954531,31.8796178 L53.3954531,31.8796178 C53.3954531,32.9572911 52.5147656,33.8341733 51.4322813,33.8341733 Z" id="Shape"></path>
                            <path d="M19.0298281,9.52091778 L11.4393125,9.52091778 C10.7200625,9.52091778 10.1370937,10.1015133 10.1370937,10.8173489 C10.1370937,11.5332933 10.7200625,12.11378 11.4393125,12.11378 L19.0298281,12.11378 C19.7490781,12.11378 20.3320469,11.5331844 20.3320469,10.8173489 C20.3320469,10.1014044 19.7489687,9.52091778 19.0298281,9.52091778 Z" id="Shape"></path>
                            <path d="M32.5650937,16.9431111 L11.4392031,16.9431111 C10.7199531,16.9431111 10.1369844,17.5237067 10.1369844,18.2395422 C10.1369844,18.9554867 10.7199531,19.5359733 11.4392031,19.5359733 L32.5650937,19.5359733 C33.2842344,19.5359733 33.8673125,18.9555956 33.8673125,18.2395422 C33.8673125,17.5237067 33.2842344,16.9431111 32.5650937,16.9431111 Z" id="Shape"></path>
                            <path d="M44.5609063,9.52091778 L26.6335781,9.52091778 C25.9143281,9.52091778 25.3313594,10.1015133 25.3313594,10.8173489 C25.3313594,11.5332933 25.9143281,12.11378 26.6335781,12.11378 L44.5609063,12.11378 C45.2800469,12.11378 45.863125,11.5331844 45.863125,10.8173489 C45.863125,10.1012956 45.2800469,9.52091778 44.5609063,9.52091778 Z" id="Shape"></path>
                            <path d="M44.5609063,16.9431111 L39.846625,16.9431111 C39.1274844,16.9431111 38.5444063,17.5237067 38.5444063,18.2395422 C38.5444063,18.9555956 39.1275938,19.5359733 39.846625,19.5359733 L44.5609063,19.5359733 C45.2800469,19.5359733 45.863125,18.9555956 45.863125,18.2395422 C45.863125,17.5234889 45.2800469,16.9431111 44.5609063,16.9431111 Z" id="Shape"></path>
                            <path d="M23.2320156,24.3655222 L11.4392031,24.3655222 C10.7199531,24.3655222 10.1369844,24.9459 10.1369844,25.6619533 C10.1369844,26.3778978 10.7199531,26.9583844 11.4392031,26.9583844 L23.2320156,26.9583844 C23.9512656,26.9583844 24.5342344,26.3777889 24.5342344,25.6619533 C24.5342344,24.9459 23.9512656,24.3655222 23.2320156,24.3655222 Z" id="Shape"></path>
                            <path d="M44.5609063,24.3655222 L30.1519531,24.3655222 C29.4328125,24.3655222 28.8497344,24.9459 28.8497344,25.6619533 C28.8497344,26.3778978 29.4329219,26.9583844 30.1519531,26.9583844 L44.5609063,26.9583844 C45.2800469,26.9583844 45.863125,26.3777889 45.863125,25.6619533 C45.863125,24.9459 45.2800469,24.3655222 44.5609063,24.3655222 Z" id="Shape"></path>
                        </g>
                    </g>
                    <g id="002-business-presentation" transform="translate(83.000000, 147.000000)" fill="#AAAAAA" fill-opacity="0.5">
                        <g id="Layer_1">
                            <g id="Group">
                                <path d="M63.0000327,0 L0.999967347,0 C0.447738776,0 0,0.440742857 0,0.984342857 L0,10.8281571 C0,11.3717571 0.447738776,11.8125 0.999967347,11.8125 L6.99990204,11.8125 L6.99990204,49.2188143 L5.99980408,49.2188143 C5.44757551,49.2188143 4.99983673,49.6595571 4.99983673,50.2031571 C4.99983673,50.7467571 5.44757551,51.1875 5.99980408,51.1875 L30.9997714,51.1875 L30.9997714,57.2631429 C29.8358857,57.6694286 28.9998367,58.7637 28.9998367,60.0468429 C28.9999673,61.6753286 30.3457959,63 32,63 C33.6542041,63 35.0000327,61.6753286 35.0000327,60.0468429 C35.0000327,58.7635714 34.1639837,57.6694286 33.000098,57.2631429 L33.000098,51.1875 L58.0000653,51.1875 C58.5522939,51.1875 59.0000327,50.7467571 59.0000327,50.2031571 C59.0000327,49.6595571 58.5522939,49.2188143 58.0000653,49.2188143 L57.000098,49.2188143 L57.000098,11.8125 L63.0000327,11.8125 C63.5522612,11.8125 64,11.3717571 64,10.8281571 L64,0.984342857 C64,0.440742857 63.5522612,0 63.0000327,0 Z M32,61.0313143 C31.4486857,61.0313143 31.0000327,60.5896714 31.0000327,60.0469714 C31.0000327,59.5042714 31.4485551,59.0626286 32,59.0626286 C32.5513143,59.0626286 32.9998367,59.5042714 32.9998367,60.0469714 C32.9998367,60.5896714 32.5513143,61.0313143 32,61.0313143 Z M54.999902,49.2188143 L9.00009796,49.2188143 L9.00009796,6.89052857 L54.999902,6.89052857 L54.999902,49.2188143 L54.999902,49.2188143 Z M61.9999347,9.84368571 L56.9999673,9.84368571 L56.9999673,6.89052857 L57.9999347,6.89052857 C58.5521633,6.89052857 58.999902,6.44978571 58.999902,5.90618571 C58.999902,5.36258571 58.5521633,4.92184286 57.9999347,4.92184286 L5.99993469,4.92184286 C5.44770612,4.92184286 4.99996735,5.36258571 4.99996735,5.90618571 C4.99996735,6.44978571 5.44770612,6.89052857 5.99993469,6.89052857 L7.00003265,6.89052857 L7.00003265,9.84368571 L2.00006531,9.84368571 L2.00006531,1.96868571 L61.9999347,1.96868571 L61.9999347,9.84368571 Z" id="Shape"></path>
                                <path d="M12.9999673,34.4531571 L51.0000327,34.4531571 C51.5522612,34.4531571 52,34.0124143 52,33.4688143 L52,10.8281571 C52.0001306,10.2845571 51.5522612,9.84381429 51.0000327,9.84381429 L12.9999673,9.84381429 C12.4477388,9.84381429 11.9998694,10.2845571 11.9998694,10.8281571 L11.9998694,33.4688143 C11.9998694,34.0124143 12.4476082,34.4531571 12.9999673,34.4531571 Z M14.0000653,11.8125 L50.0000653,11.8125 L50.0000653,32.4843429 L14.0000653,32.4843429 L14.0000653,11.8125 Z" id="Shape"></path>
                                <path d="M16.9999673,16.7343429 L20,16.7343429 C20.5522286,16.7343429 21.000098,16.2936 21.000098,15.75 C21.000098,15.2064 20.5523592,14.7656571 20,14.7656571 L16.9999673,14.7656571 C16.4477388,14.7656571 15.9998694,15.2064 15.9998694,15.75 C15.9998694,16.2936 16.4477388,16.7343429 16.9999673,16.7343429 Z" id="Shape"></path>
                                <path d="M16.9999673,20.6718429 L20,20.6718429 C20.5522286,20.6718429 21.000098,20.2311 21.000098,19.6875 C21.000098,19.1439 20.5523592,18.7031571 20,18.7031571 L16.9999673,18.7031571 C16.4477388,18.7031571 15.9998694,19.1439 15.9998694,19.6875 C15.9998694,20.2311 16.4477388,20.6718429 16.9999673,20.6718429 Z" id="Shape"></path>
                                <path d="M47.0000327,27.5626286 L23.4142041,27.5626286 L31.0000327,20.0953286 L35.7931102,24.8133857 C36.1836408,25.1978143 36.8167184,25.1976857 37.207249,24.8133857 L46.7072,15.4617429 C47.0977306,15.0773143 47.0977306,14.454 46.7072,14.0695714 C46.3166694,13.6851429 45.6835918,13.6851429 45.2930612,14.0695714 L36.5001143,22.7251286 L31.7071673,18.0070714 C31.3166367,17.6226429 30.6835592,17.6227714 30.2930286,18.0070714 L20.5859265,27.5626286 L17.000098,27.5626286 C16.4478694,27.5626286 16,28.0033714 16,28.5469714 C15.9998694,29.0905714 16.4477388,29.5313143 16.9999673,29.5313143 L47.0000327,29.5313143 C47.5522612,29.5313143 48.0001306,29.0905714 48.0001306,28.5469714 C48.0001306,28.0033714 47.5523918,27.5626286 47.0000327,27.5626286 Z" id="Shape"></path>
                                <path d="M12.9999673,40.3593429 L40,40.3593429 C40.5522286,40.3593429 40.9999673,39.9186 40.9999673,39.375 C40.9999673,38.8314 40.5522286,38.3906571 40,38.3906571 L12.9999673,38.3906571 C12.4477388,38.3906571 11.9998694,38.8314 11.9998694,39.375 C11.9998694,39.9187286 12.4477388,40.3593429 12.9999673,40.3593429 Z" id="Shape"></path>
                                <path d="M12.9999673,45.2811857 L23.0000327,45.2811857 C23.5522612,45.2811857 24.0001306,44.8404429 24.0001306,44.2968429 C24.0001306,43.7532429 23.5522612,43.3125 23.0000327,43.3125 L12.9999673,43.3125 C12.4477388,43.3125 11.9998694,43.7532429 11.9998694,44.2968429 C11.9998694,44.8404429 12.4476082,45.2811857 12.9999673,45.2811857 Z" id="Shape"></path>
                                <path d="M51.0000327,43.3125 L26.999902,43.3125 C26.4476735,43.3125 25.9999347,43.7532429 25.9999347,44.2968429 C25.9999347,44.8404429 26.4476735,45.2811857 26.999902,45.2811857 L51.0000327,45.2811857 C51.5522612,45.2811857 52,44.8404429 52,44.2968429 C52.0001306,43.7532429 51.5522612,43.3125 51.0000327,43.3125 Z" id="Shape"></path>
                                <path d="M51.0000327,38.3906571 L44,38.3906571 C43.4477714,38.3906571 43.0000327,38.8314 43.0000327,39.375 C43.0000327,39.9186 43.4477714,40.3593429 44,40.3593429 L51.0000327,40.3593429 C51.5522612,40.3593429 52,39.9186 52,39.375 C52.0001306,38.8314 51.5522612,38.3906571 51.0000327,38.3906571 Z" id="Shape"></path>
                            </g>
                        </g>
                    </g>
                    <g id="question" transform="translate(161.000000, 280.000000)" stroke-opacity="0.5" stroke="#AAAAAA" stroke-width="2">
                        <g id="Group">
                            <path d="M20,44 L16,44 C14.8,44 14,44.8 14,46 L14,50 C14,51.2 14.8,52 16,52 L20,52 C21.2,52 22,51.2 22,50 L22,46 C22,44.8 21.2,44 20,44 Z" id="Shape"></path>
                            <path d="M18,0 C8,0 0,8 0,18 C0,19 0,20 0.2,21 C0.4,22.2 1.6,22.8 2.8,22.6 L6.6,21.4 C7.6,21.2 8.2,20.2 8,19.2 C8,18.8 8,18.4 8,18 C8,12.4 12.4,8 18,8 C23.6,8 28,12.4 28,18 C28,21.4 26,23 22.4,26 C19,28.8 15,32 14,37.8 C13.8,39 14.8,40 16,40 L20,40 C21,40 21.8,39.4 22,38.4 C22.6,36 24.4,34.4 27.4,32.2 C31.2,29.2 36,25.4 36,18 C36,8 28,0 18,0 Z" id="Shape"></path>
                        </g>
                    </g>
                    <g id="002-business-presentation" transform="translate(733.000000, 147.000000)" fill="#AAAAAA" fill-opacity="0.5">
                        <g id="Layer_1">
                            <g id="Group">
                                <path d="M63.0000327,0 L0.999967347,0 C0.447738776,0 0,0.440742857 0,0.984342857 L0,10.8281571 C0,11.3717571 0.447738776,11.8125 0.999967347,11.8125 L6.99990204,11.8125 L6.99990204,49.2188143 L5.99980408,49.2188143 C5.44757551,49.2188143 4.99983673,49.6595571 4.99983673,50.2031571 C4.99983673,50.7467571 5.44757551,51.1875 5.99980408,51.1875 L30.9997714,51.1875 L30.9997714,57.2631429 C29.8358857,57.6694286 28.9998367,58.7637 28.9998367,60.0468429 C28.9999673,61.6753286 30.3457959,63 32,63 C33.6542041,63 35.0000327,61.6753286 35.0000327,60.0468429 C35.0000327,58.7635714 34.1639837,57.6694286 33.000098,57.2631429 L33.000098,51.1875 L58.0000653,51.1875 C58.5522939,51.1875 59.0000327,50.7467571 59.0000327,50.2031571 C59.0000327,49.6595571 58.5522939,49.2188143 58.0000653,49.2188143 L57.000098,49.2188143 L57.000098,11.8125 L63.0000327,11.8125 C63.5522612,11.8125 64,11.3717571 64,10.8281571 L64,0.984342857 C64,0.440742857 63.5522612,0 63.0000327,0 Z M32,61.0313143 C31.4486857,61.0313143 31.0000327,60.5896714 31.0000327,60.0469714 C31.0000327,59.5042714 31.4485551,59.0626286 32,59.0626286 C32.5513143,59.0626286 32.9998367,59.5042714 32.9998367,60.0469714 C32.9998367,60.5896714 32.5513143,61.0313143 32,61.0313143 Z M54.999902,49.2188143 L9.00009796,49.2188143 L9.00009796,6.89052857 L54.999902,6.89052857 L54.999902,49.2188143 L54.999902,49.2188143 Z M61.9999347,9.84368571 L56.9999673,9.84368571 L56.9999673,6.89052857 L57.9999347,6.89052857 C58.5521633,6.89052857 58.999902,6.44978571 58.999902,5.90618571 C58.999902,5.36258571 58.5521633,4.92184286 57.9999347,4.92184286 L5.99993469,4.92184286 C5.44770612,4.92184286 4.99996735,5.36258571 4.99996735,5.90618571 C4.99996735,6.44978571 5.44770612,6.89052857 5.99993469,6.89052857 L7.00003265,6.89052857 L7.00003265,9.84368571 L2.00006531,9.84368571 L2.00006531,1.96868571 L61.9999347,1.96868571 L61.9999347,9.84368571 Z" id="Shape"></path>
                                <path d="M12.9999673,34.4531571 L51.0000327,34.4531571 C51.5522612,34.4531571 52,34.0124143 52,33.4688143 L52,10.8281571 C52.0001306,10.2845571 51.5522612,9.84381429 51.0000327,9.84381429 L12.9999673,9.84381429 C12.4477388,9.84381429 11.9998694,10.2845571 11.9998694,10.8281571 L11.9998694,33.4688143 C11.9998694,34.0124143 12.4476082,34.4531571 12.9999673,34.4531571 Z M14.0000653,11.8125 L50.0000653,11.8125 L50.0000653,32.4843429 L14.0000653,32.4843429 L14.0000653,11.8125 Z" id="Shape"></path>
                                <path d="M16.9999673,16.7343429 L20,16.7343429 C20.5522286,16.7343429 21.000098,16.2936 21.000098,15.75 C21.000098,15.2064 20.5523592,14.7656571 20,14.7656571 L16.9999673,14.7656571 C16.4477388,14.7656571 15.9998694,15.2064 15.9998694,15.75 C15.9998694,16.2936 16.4477388,16.7343429 16.9999673,16.7343429 Z" id="Shape"></path>
                                <path d="M16.9999673,20.6718429 L20,20.6718429 C20.5522286,20.6718429 21.000098,20.2311 21.000098,19.6875 C21.000098,19.1439 20.5523592,18.7031571 20,18.7031571 L16.9999673,18.7031571 C16.4477388,18.7031571 15.9998694,19.1439 15.9998694,19.6875 C15.9998694,20.2311 16.4477388,20.6718429 16.9999673,20.6718429 Z" id="Shape"></path>
                                <path d="M47.0000327,27.5626286 L23.4142041,27.5626286 L31.0000327,20.0953286 L35.7931102,24.8133857 C36.1836408,25.1978143 36.8167184,25.1976857 37.207249,24.8133857 L46.7072,15.4617429 C47.0977306,15.0773143 47.0977306,14.454 46.7072,14.0695714 C46.3166694,13.6851429 45.6835918,13.6851429 45.2930612,14.0695714 L36.5001143,22.7251286 L31.7071673,18.0070714 C31.3166367,17.6226429 30.6835592,17.6227714 30.2930286,18.0070714 L20.5859265,27.5626286 L17.000098,27.5626286 C16.4478694,27.5626286 16,28.0033714 16,28.5469714 C15.9998694,29.0905714 16.4477388,29.5313143 16.9999673,29.5313143 L47.0000327,29.5313143 C47.5522612,29.5313143 48.0001306,29.0905714 48.0001306,28.5469714 C48.0001306,28.0033714 47.5523918,27.5626286 47.0000327,27.5626286 Z" id="Shape"></path>
                                <path d="M12.9999673,40.3593429 L40,40.3593429 C40.5522286,40.3593429 40.9999673,39.9186 40.9999673,39.375 C40.9999673,38.8314 40.5522286,38.3906571 40,38.3906571 L12.9999673,38.3906571 C12.4477388,38.3906571 11.9998694,38.8314 11.9998694,39.375 C11.9998694,39.9187286 12.4477388,40.3593429 12.9999673,40.3593429 Z" id="Shape"></path>
                                <path d="M12.9999673,45.2811857 L23.0000327,45.2811857 C23.5522612,45.2811857 24.0001306,44.8404429 24.0001306,44.2968429 C24.0001306,43.7532429 23.5522612,43.3125 23.0000327,43.3125 L12.9999673,43.3125 C12.4477388,43.3125 11.9998694,43.7532429 11.9998694,44.2968429 C11.9998694,44.8404429 12.4476082,45.2811857 12.9999673,45.2811857 Z" id="Shape"></path>
                                <path d="M51.0000327,43.3125 L26.999902,43.3125 C26.4476735,43.3125 25.9999347,43.7532429 25.9999347,44.2968429 C25.9999347,44.8404429 26.4476735,45.2811857 26.999902,45.2811857 L51.0000327,45.2811857 C51.5522612,45.2811857 52,44.8404429 52,44.2968429 C52.0001306,43.7532429 51.5522612,43.3125 51.0000327,43.3125 Z" id="Shape"></path>
                                <path d="M51.0000327,38.3906571 L44,38.3906571 C43.4477714,38.3906571 43.0000327,38.8314 43.0000327,39.375 C43.0000327,39.9186 43.4477714,40.3593429 44,40.3593429 L51.0000327,40.3593429 C51.5522612,40.3593429 52,39.9186 52,39.375 C52.0001306,38.8314 51.5522612,38.3906571 51.0000327,38.3906571 Z" id="Shape"></path>
                            </g>
                        </g>
                    </g>
                    <g id="question" transform="translate(683.000000, 280.000000)" stroke-opacity="0.5" stroke="#AAAAAA" stroke-width="2">
                        <g id="Group">
                            <path d="M20,44 L16,44 C14.8,44 14,44.8 14,46 L14,50 C14,51.2 14.8,52 16,52 L20,52 C21.2,52 22,51.2 22,50 L22,46 C22,44.8 21.2,44 20,44 Z" id="Shape"></path>
                            <path d="M18,0 C8,0 0,8 0,18 C0,19 0,20 0.2,21 C0.4,22.2 1.6,22.8 2.8,22.6 L6.6,21.4 C7.6,21.2 8.2,20.2 8,19.2 C8,18.8 8,18.4 8,18 C8,12.4 12.4,8 18,8 C23.6,8 28,12.4 28,18 C28,21.4 26,23 22.4,26 C19,28.8 15,32 14,37.8 C13.8,39 14.8,40 16,40 L20,40 C21,40 21.8,39.4 22,38.4 C22.6,36 24.4,34.4 27.4,32.2 C31.2,29.2 36,25.4 36,18 C36,8 28,0 18,0 Z" id="Shape"></path>
                        </g>
                    </g>
                    <g id="question" transform="translate(10.000000, 2.000000)" stroke-opacity="0.5" stroke="#AAAAAA" stroke-width="2">
                        <g id="Group">
                            <path d="M20,44 L16,44 C14.8,44 14,44.8 14,46 L14,50 C14,51.2 14.8,52 16,52 L20,52 C21.2,52 22,51.2 22,50 L22,46 C22,44.8 21.2,44 20,44 Z" id="Shape"></path>
                            <path d="M18,0 C8,0 0,8 0,18 C0,19 0,20 0.2,21 C0.4,22.2 1.6,22.8 2.8,22.6 L6.6,21.4 C7.6,21.2 8.2,20.2 8,19.2 C8,18.8 8,18.4 8,18 C8,12.4 12.4,8 18,8 C23.6,8 28,12.4 28,18 C28,21.4 26,23 22.4,26 C19,28.8 15,32 14,37.8 C13.8,39 14.8,40 16,40 L20,40 C21,40 21.8,39.4 22,38.4 C22.6,36 24.4,34.4 27.4,32.2 C31.2,29.2 36,25.4 36,18 C36,8 28,0 18,0 Z" id="Shape"></path>
                        </g>
                    </g>
                    <g id="question" transform="translate(834.000000, 0.000000)" stroke-opacity="0.5" stroke="#AAAAAA" stroke-width="2">
                        <g id="Group">
                            <path d="M20,44 L16,44 C14.8,44 14,44.8 14,46 L14,50 C14,51.2 14.8,52 16,52 L20,52 C21.2,52 22,51.2 22,50 L22,46 C22,44.8 21.2,44 20,44 Z" id="Shape"></path>
                            <path d="M18,0 C8,0 0,8 0,18 C0,19 0,20 0.2,21 C0.4,22.2 1.6,22.8 2.8,22.6 L6.6,21.4 C7.6,21.2 8.2,20.2 8,19.2 C8,18.8 8,18.4 8,18 C8,12.4 12.4,8 18,8 C23.6,8 28,12.4 28,18 C28,21.4 26,23 22.4,26 C19,28.8 15,32 14,37.8 C13.8,39 14.8,40 16,40 L20,40 C21,40 21.8,39.4 22,38.4 C22.6,36 24.4,34.4 27.4,32.2 C31.2,29.2 36,25.4 36,18 C36,8 28,0 18,0 Z" id="Shape"></path>
                        </g>
                    </g>
                </g>
            </g>
        </g>
    </g>
</svg>