<?xml version="1.0" encoding="UTF-8"?>
<svg width="11px" height="21px" viewBox="0 0 11 21" version="1.1" xmlns="http://www.w3.org/2000/svg" xmlns:xlink="http://www.w3.org/1999/xlink">
    <!-- Generator: Sketch 41 (35326) - http://www.bohemiancoding.com/sketch -->
    <title>Shape</title>
    <desc>Created with Sketch.</desc>
    <defs></defs>
    <g id="Page-1" stroke="none" stroke-width="1" fill="none" fill-rule="evenodd">
        <g id="Home-Page" transform="translate(-665.000000, -2289.000000)" fill="#51CCA3">
            <g id="Newsletters" transform="translate(321.000000, 1866.000000)">
                <g id="Group-3" transform="translate(283.000000, 423.000000)">
                    <path d="M71.5857723,0.00423329292 L68.9473725,0 C65.9832208,0 64.0676557,1.96530624 64.0676557,5.00713887 L64.0676557,7.31576517 L61.4148627,7.31576517 C61.1856299,7.31576517 61,7.50160673 61,7.73083954 L61,11.0757759 C61,11.3050088 61.1858416,11.4906386 61.4148627,11.4906386 L64.0676557,11.4906386 L64.0676557,19.9309781 C64.0676557,20.1602109 64.2532856,20.3458408 64.4825184,20.3458408 L67.9436587,20.3458408 C68.1728915,20.3458408 68.3585214,20.1599992 68.3585214,19.9309781 L68.3585214,11.4906386 L71.4602552,11.4906386 C71.689488,11.4906386 71.8751179,11.3050088 71.8751179,11.0757759 L71.8763878,7.73083954 C71.8763878,7.62077392 71.8325733,7.51536493 71.7548923,7.43747234 C71.6772114,7.35957975 71.5713791,7.31576517 71.4613135,7.31576517 L68.3585214,7.31576517 L68.3585214,5.35871385 C68.3585214,4.41807616 68.5826743,3.94056072 69.8080009,3.94056072 L71.585349,3.93992572 C71.8143701,3.93992572 72,3.75408417 72,3.52506302 L72,0.419096 C72,0.190286517 71.8145818,0.00465662222 71.5857723,0.00423329292 L71.5857723,0.00423329292 Z" id="Shape"></path>
                </g>
            </g>
        </g>
    </g>
</svg>