<?xml version="1.0" encoding="UTF-8"?>
<svg width="24px" height="19px" viewBox="0 0 24 19" version="1.1" xmlns="http://www.w3.org/2000/svg" xmlns:xlink="http://www.w3.org/1999/xlink">
    <!-- Generator: Sketch 41 (35326) - http://www.bohemiancoding.com/sketch -->
    <title>Fill 1</title>
    <desc>Created with Sketch.</desc>
    <defs></defs>
    <g id="Page-1" stroke="none" stroke-width="1" fill="none" fill-rule="evenodd">
        <g id="Inscription-" transform="translate(-298.000000, -424.000000)" fill="#515151">
            <g id="Group-3" transform="translate(198.000000, 173.000000)">
                <g id="Infos" transform="translate(69.000000, 137.000000)">
                    <g id="Photo" transform="translate(31.000000, 0.000000)">
                        <g id="Group" transform="translate(0.000000, 114.000000)">
                            <path d="M12,7.125 C10.0113,7.125 8.4,8.72070312 8.4,10.6875 C8.4,12.6554844 10.0113,14.25 12,14.25 C13.9875,14.25 15.6,12.6554844 15.6,10.6875 C15.6,8.72070312 13.9875,7.125 12,7.125 L12,7.125 Z M21.6,3.5625 L18.7194,3.5625 C18.3234,3.5625 17.8968,3.25879687 17.7726,2.88651562 L17.0274,0.675984375 C16.902,0.303703125 16.4766,0 16.0806,0 L7.9194,0 C7.5234,0 7.0968,0.303703125 6.9726,0.675984375 L6.2274,2.88651562 C6.102,3.25879687 5.6766,3.5625 5.2806,3.5625 L2.4,3.5625 C1.0806,3.5625 0,4.63184375 0,5.9375 L0,16.625 C0,17.9306563 1.0806,19 2.4,19 L21.6,19 C22.9194,19 24,17.9306563 24,16.625 L24,5.9375 C24,4.63184375 22.9194,3.5625 21.6,3.5625 L21.6,3.5625 Z M12,16.625 C8.6859,16.625 6,13.9670781 6,10.6875 C6,7.40910938 8.6859,4.75 12,4.75 C15.3129,4.75 18,7.40910938 18,10.6875 C18,13.9670781 15.3129,16.625 12,16.625 L12,16.625 Z M20.7597,7.59821875 C20.2968,7.59821875 19.9194,7.2259375 19.9194,6.76667187 C19.9194,6.30859375 20.2968,5.9363125 20.7597,5.9363125 C21.2238,5.9363125 21.6,6.30859375 21.6,6.76667187 C21.6,7.2259375 21.2238,7.59821875 20.7597,7.59821875 L20.7597,7.59821875 Z" id="Fill-1"></path>
                        </g>
                    </g>
                </g>
            </g>
        </g>
    </g>
</svg>