<?xml version="1.0" encoding="utf-8"?>
<!-- Generator: Adobe Illustrator 21.0.0, SVG Export Plug-In . SVG Version: 6.00 Build 0)  -->
<svg version="1.1" id="Capa_1" xmlns="http://www.w3.org/2000/svg" xmlns:xlink="http://www.w3.org/1999/xlink" x="0px" y="0px"
	 viewBox="0 0 512 512" style="enable-background:new 0 0 512 512;" xml:space="preserve">
<style type="text/css">
	.st0{fill:#51CCA3;stroke:#51CCA3;stroke-width:9;stroke-miterlimit:10;}
</style>
<g>
	<path class="st0" d="M501.2,163.7C494,84.6,438.1,27.3,368,27.3c-46.6,0-89.4,25.1-113.4,65.3C230.8,51.9,189.9,27.3,144,27.3
		c-70,0-126,57.3-133.1,136.4c-0.6,3.5-2.9,21.9,4.2,51.8c10.2,43.2,33.8,82.5,68.1,113.7l171.4,155.5l174.3-155.5
		c34.4-31.1,57.9-70.4,68.1-113.7C504.1,185.5,501.7,167.2,501.2,163.7z M478.6,211.2c-9.3,39.5-30.9,75.4-62.4,103.9L254.6,459.3
		L95.8,315.2c-31.5-28.6-53.1-64.5-62.4-104c-6.7-28.4-3.9-44.4-3.9-44.5l0.1-1C35.8,96.5,83.9,46.2,144,46.2
		c44.3,0,83.4,27.3,101.9,71.1l8.7,20.7l8.7-20.7c18.2-43.2,59.3-71.1,104.7-71.1c60.1,0,108.2,50.3,114.5,120.4
		C482.5,166.8,485.3,182.8,478.6,211.2z"/>
</g>
</svg>
