<?xml version="1.0" encoding="UTF-8"?>
<svg width="14px" height="17px" viewBox="0 0 14 17" version="1.1" xmlns="http://www.w3.org/2000/svg" xmlns:xlink="http://www.w3.org/1999/xlink">
    <!-- Generator: Sketch 41 (35326) - http://www.bohemiancoding.com/sketch -->
    <title>Shape</title>
    <desc>Created with Sketch.</desc>
    <defs></defs>
    <g id="Page-1" stroke="none" stroke-width="1" fill="none" fill-rule="evenodd">
        <g id="Wiki" transform="translate(-1053.000000, -55.000000)" fill="#FFFFFF">
            <g id="Header" transform="translate(100.000000, 30.000000)">
                <g id="Account" transform="translate(953.000000, 25.000000)">
                    <path d="M6.60066821,8.09995955 C8.56193706,8.09995955 10.1572717,6.1723982 10.1572717,3.80340707 C10.1572717,1.56416674 8.69468922,7.10542736e-15 6.60066821,7.10542736e-15 C4.50710895,7.10542736e-15 3.04475734,1.56393587 3.04475734,3.80340707 C3.04452647,6.17262907 4.63963023,8.09995955 6.60066821,8.09995955 Z M13.1969498,14.1162874 C13.1884075,13.568425 13.1840209,13.3627169 13.1775565,13.298765 C12.8822695,10.5936223 10.5786155,9.10333499 6.69117055,9.10333499 L6.60828703,9.10564373 L6.57896612,9.10472023 C6.55587878,9.10425849 6.5332532,9.10333499 6.50947325,9.10333499 C2.62179742,9.10333499 0.318605181,10.5936223 0.0235490786,13.298765 C0.0170846257,13.358792 0.0133906525,13.5372571 0.00531008635,14.0437932 L0,14.3697863 C0,14.3774051 0.00138523992,14.3845622 0.00184698656,14.3919501 C0.0023087332,14.4051099 0.00300135316,14.4180388 0.00507921303,14.4307368 C0.00669532627,14.4415879 0.00969667942,14.4519772 0.0124671593,14.4623665 C0.0152376391,14.4736793 0.0180081189,14.4849921 0.0221638387,14.4958431 C0.0260886851,14.5062324 0.0309370248,14.51616 0.0357853645,14.5260875 C0.0406337043,14.5364768 0.045482044,14.5464044 0.051253877,14.5563319 C0.0572565833,14.5657977 0.0641827829,14.5748018 0.0711089824,14.5842676 C0.0775734354,14.5928099 0.083807015,14.6013522 0.0909640879,14.6094328 C0.0999681474,14.6193603 0.110126573,14.6279027 0.120054126,14.636445 C0.125364213,14.6412933 0.129750806,14.6468343 0.135522639,14.6512209 C0.138985738,14.6539913 0.142448838,14.6560692 0.145911938,14.6588397 C0.146604558,14.6593014 0.147528051,14.6597632 0.148220671,14.6606867 C1.96196147,16.0482353 4.13217067,16.7521681 6.59928297,16.7521681 L6.60066821,16.7521681 C9.00729169,16.7521681 11.2377588,16.028842 13.0521923,14.6611484 C13.0533466,14.6602249 13.054501,14.6593014 13.0556554,14.6588397 C13.0584258,14.656531 13.0611963,14.654684 13.0639668,14.6526061 C13.0697386,14.6484504 13.0741252,14.6431403 13.0794353,14.6380611 C13.0898246,14.6295188 13.1002139,14.6205147 13.1094488,14.6101254 C13.1168368,14.6025066 13.1230704,14.5939643 13.1293039,14.585422 C13.136461,14.5764179 13.143849,14.5669521 13.1498517,14.5570245 C13.1556235,14.5475587 13.160241,14.5376312 13.1650893,14.5277036 C13.1699376,14.5173143 13.1750169,14.5073868 13.1791726,14.4969975 C13.1830974,14.4861464 13.185637,14.4752954 13.1886384,14.4639826 C13.1916397,14.4535933 13.1944102,14.4427423 13.1962572,14.4318912 C13.1983351,14.4196549 13.1987968,14.4071878 13.1994894,14.3944897 C13.1999512,14.3864092 13.2017982,14.3787903 13.2015673,14.370248 L13.1969498,14.1162874 Z" id="Shape"></path>
                </g>
            </g>
        </g>
    </g>
</svg>