<?xml version="1.0" encoding="UTF-8"?>
<svg width="26px" height="21px" viewBox="0 0 26 21" version="1.1" xmlns="http://www.w3.org/2000/svg" xmlns:xlink="http://www.w3.org/1999/xlink">
    <!-- Generator: Sketch 41 (35326) - http://www.bohemiancoding.com/sketch -->
    <title>Shape</title>
    <desc>Created with Sketch.</desc>
    <defs></defs>
    <g id="Page-1" stroke="none" stroke-width="1" fill="none" fill-rule="evenodd">
        <g id="Home-Page" transform="translate(-604.000000, -2289.000000)" fill="#51CCA3">
            <g id="Newsletters" transform="translate(321.000000, 1866.000000)">
                <g id="Group-3" transform="translate(283.000000, 423.000000)">
                    <path d="M25.4606871,2.76901551 C24.555677,3.17056926 23.5846142,3.44289842 22.5643333,3.56447897 C23.6061094,2.93979957 24.403563,1.94897041 24.7815177,0.771948408 C23.8043076,1.35044169 22.7256481,1.77050207 21.5763154,1.99821415 C20.6559572,1.01506927 19.3468365,0.402700803 17.8948025,0.402700803 C15.109099,0.402700803 12.8504107,2.66441279 12.8504107,5.45231669 C12.8504107,5.84771497 12.8949681,6.23390017 12.9810294,6.60318801 C8.78941628,6.3923733 5.07258692,4.38146645 2.5849642,1.32581981 C2.15011738,2.07051072 1.90274125,2.93823053 1.90274125,3.86448762 C1.90274125,5.61694528 2.79393013,7.16321489 4.14608155,8.06786749 C3.31941858,8.040188 2.54193353,7.81247593 1.86127752,7.43397501 L1.86127752,7.49705849 C1.86127752,9.94339428 3.60062462,11.9850785 5.90692389,12.4497559 C5.48437155,12.563612 5.03879719,12.6266955 4.57783466,12.6266955 C4.25211137,12.6266955 3.93711562,12.5943893 3.6282671,12.5328346 C4.27051291,14.5406839 6.13280477,16.0007769 8.33926164,16.0408076 C6.61373579,17.3947691 4.43801511,18.1994456 2.07486393,18.1994456 C1.66769978,18.1994456 1.26664268,18.1748238 0.871773004,18.1302067 C3.10434559,19.5657181 5.75485004,20.4027008 8.60355272,20.4027008 C17.8825884,20.4027008 22.9546629,12.7067165 22.9546629,6.03237901 L22.9377479,5.37849131 C23.9287792,4.67069297 24.7861382,3.78140892 25.4606871,2.76901551 L25.4606871,2.76901551 Z" id="Shape"></path>
                </g>
            </g>
        </g>
    </g>
</svg>